<svg width="48" height="49" viewBox="0 0 48 49" fill="none" xmlns="http://www.w3.org/2000/svg">
<path d="M22.5859 9.08603C23.367 8.30498 24.633 8.30498 25.4141 9.08603L39.4141 23.086C39.5438 23.2158 39.6507 23.3597 39.7373 23.5118C39.745 23.5252 39.7534 23.5382 39.7607 23.5519C39.7816 23.5905 39.7993 23.6304 39.8174 23.67C39.8268 23.6905 39.837 23.7107 39.8457 23.7315C39.86 23.766 39.8724 23.801 39.8848 23.836C39.8941 23.8626 39.9039 23.889 39.9121 23.9161C40.0278 24.2961 40.0277 24.7031 39.9121 25.0831C39.9039 25.1102 39.8941 25.1366 39.8848 25.1632C39.8725 25.1981 39.8609 25.2333 39.8467 25.2677C39.8361 25.293 39.8231 25.3171 39.8115 25.3419C39.7959 25.3755 39.7813 25.4096 39.7637 25.4425C39.7522 25.4639 39.7388 25.4841 39.7266 25.505C39.6739 25.5953 39.6149 25.6828 39.5469 25.7657C39.5047 25.8171 39.461 25.8672 39.4141 25.9142L25.4141 39.9142C24.633 40.6951 23.367 40.6951 22.5859 39.9142C21.8049 39.1331 21.805 37.8671 22.5859 37.086L33.1719 26.5001H10C8.89548 26.5001 8.00008 25.6046 8 24.5001C8 23.3955 8.89543 22.5001 10 22.5001H33.1719L22.5859 11.9142C21.8049 11.1331 21.805 9.86709 22.5859 9.08603Z" fill="#5B8C30"/>
</svg>
