<svg width="80" height="74" viewBox="0 0 80 74" fill="none" xmlns="http://www.w3.org/2000/svg">
<path d="M74 4.20991C72.1261 2.643 69.9302 1.50787 67.5682 0.885123C65.2063 0.262372 62.7362 0.167271 60.3333 0.606574L47.5933 2.91991C44.652 3.46005 41.9776 4.97333 40 7.21657C38.0172 4.96945 35.3352 3.45583 32.3866 2.91991L19.6666 0.606574C17.2638 0.166887 14.7937 0.260741 12.4312 0.881493C10.0687 1.50225 7.87152 2.63472 5.99519 4.19875C4.11886 5.76279 2.60926 7.72014 1.57324 9.93226C0.53723 12.1444 0.000132191 14.5572 -3.05176e-05 16.9999L-3.05176e-05 52.9766C0.000161002 56.8792 1.36989 60.6581 3.87041 63.6544C6.37094 66.6508 9.84367 68.6747 13.6833 69.3732L34.6366 73.1832C38.1832 73.8277 41.8168 73.8277 45.3633 73.1832L66.3333 69.3732C70.1699 68.6712 73.6387 66.6458 76.1359 63.6498C78.6331 60.6538 80.0005 56.8769 80 52.9766V16.9999C80.0015 14.5581 79.4646 12.1459 78.4275 9.93522C77.3905 7.72453 75.8787 5.76969 74 4.20991ZM36.6666 66.7599C36.3866 66.7199 36.1066 66.6732 35.8266 66.6232L14.8766 62.8166C12.5725 62.3974 10.4886 61.1828 8.98826 59.3845C7.48791 57.5863 6.66628 55.3185 6.66664 52.9766V16.9999C6.66664 14.3477 7.72021 11.8042 9.59557 9.92884C11.4709 8.05348 14.0145 6.99991 16.6666 6.99991C17.2703 7.00135 17.8726 7.056 18.4666 7.16324L31.2 9.49657C32.732 9.77692 34.1175 10.5848 35.1161 11.7801C36.1147 12.9753 36.6633 14.4824 36.6666 16.0399V66.7599ZM73.3333 52.9766C73.3337 55.3185 72.512 57.5863 71.0117 59.3845C69.5113 61.1828 67.4274 62.3974 65.1233 62.8166L44.1733 66.6232C43.8933 66.6732 43.6133 66.7199 43.3333 66.7599V16.0399C43.3331 14.4786 43.8808 12.9668 44.8811 11.7679C45.8813 10.5691 47.2706 9.75938 48.8066 9.47991L61.5433 7.14657C62.9857 6.88414 64.4682 6.94208 65.8857 7.31628C67.3032 7.69047 68.6211 8.37177 69.746 9.31193C70.871 10.2521 71.7754 11.4281 72.3954 12.7566C73.0153 14.0852 73.3355 15.5338 73.3333 16.9999V52.9766Z" fill="#5B8C30"/>
</svg>
