<svg fill="none" height="24" viewBox="0 0 24 24" width="24" xmlns="http://www.w3.org/2000/svg"><path clip-rule="evenodd" d="M12.1213 7.40686C10.6607 6.40269 8.64684 6.54986 7.34835 7.84835C5.88388 9.31282 5.88388 11.6872 7.34835 13.1517L11.591 17.3943C11.7316 17.5349 11.9224 17.614 12.1213 17.614C12.3202 17.614 12.511 17.5349 12.6517 17.3943L16.8943 13.1517C18.3588 11.6872 18.3588 9.31282 16.8943 7.84835C15.5958 6.54986 13.582 6.40269 12.1213 7.40686ZM11.591 8.90901C10.7123 8.03033 9.28769 8.03033 8.40901 8.90901C7.53033 9.78769 7.53033 11.2123 8.40901 12.091L12.1213 15.8033L15.8336 12.091C16.7123 11.2123 16.7123 9.78769 15.8336 8.90901C14.955 8.03033 13.5303 8.03033 12.6517 8.90901C12.3588 9.2019 11.8839 9.2019 11.591 8.90901Z" fill="black" fill-rule="evenodd"></path><path clip-rule="evenodd" d="M10.2263 2.128C10.3296 2.52914 10.0881 2.93802 9.68694 3.04127C9.19056 3.16903 8.7103 3.33698 8.24979 3.54149C7.87123 3.7096 7.42806 3.539 7.25994 3.16044C7.09183 2.78187 7.26243 2.3387 7.64099 2.17059C8.17667 1.9327 8.73547 1.73727 9.31306 1.58861C9.7142 1.48537 10.1231 1.72686 10.2263 2.128ZM5.75633 4.15238C6.03781 4.45625 6.01966 4.93078 5.71579 5.21226C4.97148 5.90172 4.34093 6.71184 3.85525 7.61113C3.65841 7.97559 3.2034 8.11148 2.83894 7.91464C2.47448 7.71781 2.33859 7.26279 2.53543 6.89834C3.1 5.85298 3.83243 4.91218 4.69645 4.11183C5.00032 3.83035 5.47485 3.8485 5.75633 4.15238ZM2.25612 9.61903C2.66481 9.6865 2.94142 10.0725 2.87396 10.4812C2.79247 10.9748 2.75 11.4821 2.75 11.9999C2.75 12.5177 2.79247 13.025 2.87396 13.5186C2.94142 13.9273 2.66481 14.3133 2.25612 14.3808C1.84744 14.4482 1.46145 14.1716 1.39399 13.7629C1.29922 13.1888 1.25 12.5998 1.25 11.9999C1.25 11.4 1.29922 10.811 1.39399 10.2369C1.46145 9.82819 1.84744 9.55157 2.25612 9.61903ZM2.83894 16.0851C3.2034 15.8883 3.65841 16.0242 3.85525 16.3887C4.34093 17.288 4.97147 18.0981 5.71578 18.7875C6.01966 19.069 6.03781 19.5435 5.75633 19.8474C5.47485 20.1513 5.00032 20.1694 4.69644 19.888C3.83243 19.0876 3.1 18.1468 2.53543 17.1015C2.33859 16.737 2.47448 16.282 2.83894 16.0851ZM7.25994 20.8394C7.42805 20.4608 7.87122 20.2902 8.24979 20.4583C8.7103 20.6628 9.19056 20.8308 9.68694 20.9585C10.0881 21.0618 10.3296 21.4707 10.2263 21.8718C10.1231 22.2729 9.7142 22.5144 9.31306 22.4112C8.73547 22.2625 8.17667 22.0671 7.64099 21.8292C7.26243 21.6611 7.09183 21.2179 7.25994 20.8394Z" fill="black" fill-rule="evenodd"></path><path clip-rule="evenodd" d="M11.25 2C11.25 1.58579 11.5858 1.25 12 1.25C17.9371 1.25 22.75 6.06294 22.75 12C22.75 12.4142 22.4142 12.75 22 12.75C21.5858 12.75 21.25 12.4142 21.25 12C21.25 6.89137 17.1086 2.75 12 2.75C11.5858 2.75 11.25 2.41421 11.25 2ZM21.4682 15.3127C21.8478 15.4786 22.021 15.9207 21.8552 16.3003C20.197 20.0954 16.4094 22.75 12 22.75C11.5858 22.75 11.25 22.4142 11.25 22C11.25 21.5858 11.5858 21.25 12 21.25C15.7919 21.25 19.0526 18.9682 20.4806 15.6997C20.6465 15.3202 21.0886 15.1469 21.4682 15.3127Z" fill="black" fill-rule="evenodd"></path></svg>